<?xml version="1.0" encoding="UTF-8" standalone="no"?>
<!DOCTYPE svg PUBLIC "-//W3C//DTD SVG 1.1//EN" "http://www.w3.org/Graphics/SVG/1.1/DTD/svg11.dtd">
<svg width="100%" height="100%" viewBox="0 0 48 55" version="1.1" xmlns="http://www.w3.org/2000/svg" xmlns:xlink="http://www.w3.org/1999/xlink" xml:space="preserve" xmlns:serif="http://www.serif.com/" style="fill-rule:evenodd;clip-rule:evenodd;stroke-linejoin:round;stroke-miterlimit:2;">
    <g transform="matrix(1,0,0,1,-919.011,-495.211)">
        <g id="g32" transform="matrix(1,0,0,1,445.911,493.211)">
            <path id="path8" d="M495.2,20.1C494.7,19.4 493.5,18.4 492.8,17.7C491.9,16.6 491.6,16.4 491.6,14.7L491.6,7.6C491.6,6.5 490,6.7 490,7.6C490,7.6 489.9,20.1 490,21.2C490.1,22.3 489.6,23 491.3,24.2C493.1,25.4 495.9,26.2 495.9,26.2C495.9,26.2 495.9,23.4 496,22.4C496,21.3 495.7,20.8 495.2,20.1M494.4,23.9C491.8,22.8 491.4,23 491.6,19C494.7,21 494.6,21.7 494.4,23.9" style="fill:rgb(72,118,41);fill-rule:nonzero;"/>
            <path id="path10" d="M497.4,22.3L497.4,26.1C497.4,26.1 500.2,25.3 502,24.1C503.7,23 503.2,22.3 503.3,21.2C503.4,20.1 503.3,7.6 503.3,7.6C503.3,6.7 501.7,6.5 501.7,7.6L501.7,15C501.7,16.7 501.4,17 500.4,17.9C499.7,18.6 498.6,19.6 498,20.3C497.7,20.8 497.4,21.3 497.4,22.3M501.8,19.2C502.1,23.1 501.7,23 499,24.1C498.9,21.8 498.6,21 501.8,19.2" style="fill:rgb(72,118,41);fill-rule:nonzero;"/>
            <path id="path12" d="M498.8,12.9C497.9,11.3 498.8,12.9 497.5,10.8L497.5,2.9C497.5,1.7 495.9,1.7 495.9,2.9L495.9,10.8C495.9,10.8 494.6,13 494.2,14C493.8,14.9 493.3,16 494.6,17.4C494.7,17.5 494.9,17.8 496.7,19.5L498.3,17.9C500.5,15.8 499.7,14.4 498.8,12.9M496.8,17.3C493.8,15.7 496,13.5 496.8,12L496.9,12.1C499,15.6 498.5,16.2 496.8,17.3" style="fill:rgb(72,118,41);fill-rule:nonzero;"/>
            <path id="path14" d="M495.7,29.7C495.6,28.1 495,26.8 491.9,25.6C489.3,24.5 485.4,24.3 482.7,23.9C479.9,23.5 475.5,22.7 473.1,20.5C474.8,26.2 479,28.5 483.4,29.6C488.3,30.7 492.7,31.2 495.4,33L495.7,33.1C495.6,31.8 495.9,31.3 495.7,29.7M494.4,30.5C492,29.6 490.5,29.3 486.2,28.5C482,27.6 479.5,26.8 477.1,24.4C480.8,25.8 486.7,26.4 489.9,27C493.2,27.7 494,28.7 494.4,30.5Z" style="fill:rgb(72,118,41);fill-rule:nonzero;"/>
            <path id="path16" d="M497.4,33.1L497.7,33C500.3,31.2 504.8,30.8 509.8,29.7C514.1,28.8 518.5,26.4 520.2,20.7C518,22.8 513.4,23.6 510.6,24C507.8,24.4 504,24.7 501.4,25.6C498.2,26.8 497.6,28.1 497.6,29.7C497.4,31.3 497.6,31.8 497.4,33.1M498.9,30.5C499.3,28.5 500.1,27.7 503.4,27.1C506.6,26.4 512.5,25.9 516.2,24.6C514,27 511.3,27.8 507.1,28.5C502.8,29.5 501.3,29.6 498.9,30.5Z" style="fill:rgb(72,118,41);fill-rule:nonzero;"/>
            <path id="path18" d="M495.6,37C495.6,34 493.9,33.1 491.3,32.4C488.7,31.7 485.1,31.2 482,30.3C479,29.4 477.3,28.9 475.2,26.5C475.6,31 478.8,34.1 482.6,35.5C486.4,36.8 486.2,36.6 488.3,37.1C490.4,37.6 490.7,38.4 490.7,39.6L490.7,42.2L495.8,42.2C495.7,36.3 495.5,40.1 495.6,37M494,40.5L491.9,40.5C491.9,40.5 491.9,39.6 491.8,38.1C491.7,36.1 489.3,36 485.6,34.9C483,34.1 479.7,33.2 478.2,30.7C479.1,31.1 481,31.9 484,32.5C486.9,33.2 488.5,33.4 491.1,33.9C493.6,34.4 494.1,36 494,37.6L494,40.5Z" style="fill:rgb(72,118,41);fill-rule:nonzero;"/>
            <path id="path20" d="M497.6,42.2L502.7,42.2L502.7,39.6C502.7,38.3 503.1,37.6 505.2,37.1C507.3,36.6 507,36.8 510.9,35.5C514.7,34.2 517.9,31 518.3,26.7C516.2,28.9 514.5,29.6 511.3,30.4C508.3,31.3 504.6,31.7 502,32.5C499.4,33.2 497.7,34.1 497.7,37.1C497.6,40.1 497.4,36.3 497.6,42.2M499,37.7C499,36 499.5,34.5 502,34C504.6,33.5 506.2,33.1 509.1,32.6C512.1,31.9 514,31.3 514.9,30.9C513.5,33.5 510,34.3 507.4,35.1C503.6,36.2 501.3,36.3 501.2,38.3C501.1,39.7 501.1,40.7 501.1,40.7L499,40.7L499,37.7Z" style="fill:rgb(72,118,41);fill-rule:nonzero;"/>
            <path id="path22" d="M485.1,56.4C484.4,56.5 483.8,56.7 483,56.7C480.1,56.7 478.1,55.3 478.1,52.2C478.1,49.2 479.9,47.5 483.1,47.5C483.6,47.5 484.4,47.6 485.2,47.9L485.1,49.5C484.4,49.1 483.8,49 483.1,49C481.3,49 480.1,50.4 480.1,52.3C480.1,54.1 481.3,55.5 483.1,55.5C483.8,55.5 484.7,55.4 485.1,55.1L485.1,56.4Z" style="fill:rgb(72,118,41);fill-rule:nonzero;"/>
            <path id="path24" d="M493.5,49.3C492.8,49 491.9,48.8 491.1,48.8C489,48.8 487.8,50.2 487.8,52.1C487.8,53.9 489,55.3 490.8,55.3C491.3,55.3 491.7,55.3 492,55.2L492,52.8L490,52.8L490,51.4L493.7,51.4L493.7,56.3C492.8,56.6 491.7,56.7 490.8,56.7C487.9,56.7 485.9,55.3 485.9,52.2C485.9,49.1 487.7,47.5 490.9,47.5C492,47.5 492.7,47.6 493.5,47.9L493.5,49.3Z" style="fill:rgb(72,118,41);fill-rule:nonzero;"/>
            <g id="rect26" transform="matrix(0.00482,-1,1,0.00482,442.115,548.322)">
                <rect x="492" y="51.1" width="9" height="1.8" style="fill:rgb(72,118,41);fill-rule:nonzero;"/>
            </g>
            <path id="path28" d="M504.2,53.1L501.6,53.1L502.9,49.4L504.2,53.1ZM498.4,56.6L500.2,56.6L501,54.5L504.7,54.5L505.5,56.6L507.5,56.6L503.9,47.6L501.9,47.6L498.4,56.6Z" style="fill:rgb(72,118,41);fill-rule:nonzero;"/>
            <path id="path30" d="M510.3,49.1L510.8,49.1C511.7,49.1 512.8,49.2 512.6,50.3C512.6,51.5 511.5,51.6 510.6,51.5L510.1,51.5L510.3,49.1ZM508.5,56.7L510.3,56.7L510.3,53L510.8,53C511.6,53 511.9,53.3 512.1,53.9L513.2,56.7L515.2,56.7L513.8,53.1C513.7,52.7 513.4,52.2 512.9,52.2C514.1,52.1 514.7,51.1 514.7,50.1C514.7,47.6 512.5,47.6 510.5,47.6L508.5,47.6L508.5,56.7Z" style="fill:rgb(72,118,41);fill-rule:nonzero;"/>
        </g>
    </g>
</svg>
